<?xml version="1.0" encoding="utf-8"?>
<svg width="193px" height="48px" viewBox="0 0 193 48" version="1.1" xmlns:xlink="http://www.w3.org/1999/xlink" xmlns="http://www.w3.org/2000/svg">
  <g id="Powered-by-Strava">
    <g id="powered-by" transform="translate(0 17)">
      <path d="M7.9375 7.03906L7.9375 7.03906Q7.9375 5.67188 7.21094 4.875Q6.48438 4.07813 5.20313 4.07813L5.20313 4.07813L4.67188 4.07813L4.67188 10L5.20313 10Q6.48438 10 7.21094 9.20313Q7.9375 8.40625 7.9375 7.03906ZM9.1875 7.03906L9.1875 7.03906Q9.1875 8.85938 8.17188 9.92969Q7.15625 11 5.375 11L5.375 11L3.42188 11L3.42188 3.07813L5.375 3.07813Q7.15625 3.07813 8.17188 4.14844Q9.1875 5.21875 9.1875 7.03906Z" transform="translate(0 0)" id="D" fill="#FFFFFF" fill-rule="evenodd" stroke="none" />
      <path d="M13.6719 8.39063L13.6719 8.39063Q13.6719 7.71875 13.2188 7.35938Q12.7656 7 11.8906 6.82813L11.8906 6.82813L11.0781 6.67188Q9.03125 6.32813 9.03125 4.67188L9.03125 4.67188Q9.03125 3.73438 9.78125 3.14063Q10.5313 2.54688 11.7344 2.54688L11.7344 2.54688Q13 2.54688 13.7656 3.15625Q14.5313 3.76563 14.5625 4.82813L14.5625 4.82813L13.3281 4.82813Q13.2969 4.26563 12.9063 3.96875Q12.5156 3.67188 11.7344 3.67188L11.7344 3.67188Q10.9844 3.67188 10.6094 3.9375Q10.2344 4.20313 10.2344 4.67188L10.2344 4.67188Q10.2344 5.10938 10.6406 5.375Q11.0469 5.64063 11.8594 5.79688L11.8594 5.79688L12.6719 5.95313Q13.7813 6.14063 14.3594 6.71875Q14.9375 7.29688 14.9375 8.28125L14.9375 8.28125Q14.9375 9.26563 14.1719 9.88281Q13.4063 10.5 12.1406 10.5L12.1406 10.5Q10.7813 10.5 9.98438 9.84375Q9.1875 9.1875 9.17188 8.0625L9.17188 8.0625L10.4219 8.0625Q10.4531 8.70313 10.8906 9.04688Q11.3281 9.39063 12.1406 9.39063L12.1406 9.39063Q12.9375 9.39063 13.3047 9.10938Q13.6719 8.82813 13.6719 8.39063Z" transform="translate(15.46875 0)" id="S" fill="#FFFFFF" fill-rule="evenodd" stroke="none" />
      <path d="M20.2031 6.98438L20.2031 6.98438L20.2031 7.01563Q20.2031 8.70313 19.3594 9.60156Q18.5156 10.5 17.0781 10.5L17.0781 10.5Q15.625 10.5 14.7969 9.59375Q13.9688 8.6875 13.9531 7.01563L13.9531 7.01563L13.9531 6.5625Q13.9531 5.53125 14.3281 4.75Q14.7031 3.96875 15.3906 3.53906Q16.0781 3.10938 17 3.10938L17 3.10938Q18.4375 3.10938 19.2813 4.01563Q20.125 4.92188 20.2031 6.57813L20.2031 6.57813L20.2031 6.98438ZM15.2188 6.98438L15.2188 6.98438Q15.2188 8.25 15.7188 8.96875Q16.2188 9.6875 17.0781 9.6875L17.0781 9.6875Q17.9375 9.6875 18.4219 8.98438Q18.9063 8.28125 18.9219 6.98438L18.9219 6.98438L18.9219 6.5625Q18.9219 5.29688 18.4219 4.59375Q17.9219 3.89063 17.0781 3.89063L17.0781 3.89063Q16.2188 3.89063 15.7344 4.59375Q15.25 5.29688 15.2188 6.5625L15.2188 6.5625L15.2188 6.98438Z" transform="translate(30.9375 0)" id="O" fill="#FFFFFF" fill-rule="evenodd" stroke="none" />
      <path d="M23.2188 6.98438L23.2188 6.98438L23.2188 7.01563Q23.2188 8.70313 22.375 9.60156Q21.5313 10.5 20.0938 10.5L20.0938 10.5Q18.6406 10.5 17.8125 9.59375Q16.9844 8.6875 16.9688 7.01563L16.9688 7.01563L16.9688 6.5625Q16.9688 5.53125 17.3438 4.75Q17.7188 3.96875 18.4063 3.53906Q19.0938 3.10938 20.0156 3.10938L20.0156 3.10938Q21.4531 3.10938 22.2969 4.01563Q23.1406 4.92188 23.2188 6.57813L23.2188 6.57813L23.2188 6.98438ZM18.2344 6.98438L18.2344 6.98438Q18.2344 8.25 18.7344 8.96875Q19.2344 9.6875 20.0938 9.6875L20.0938 9.6875Q20.9531 9.6875 21.4375 8.98438Q21.9219 8.28125 21.9375 6.98438L21.9375 6.98438L21.9375 6.5625Q21.9375 5.29688 20.9375 4.59375Q20.4375 3.89063 20.0938 3.89063L20.0938 3.89063Q19.2344 3.89063 18.75 4.59375Q18.2656 5.29688 18.2344 6.5625L18.2344 6.5625L18.2344 6.98438Z" transform="translate(51.1875 0)" id="O" fill="#FFFFFF" fill-rule="evenodd" stroke="none" />
      <path d="M25.3594 3.23438L25.3906 4.17188Q26.0938 3.10938 27.4844 3.10938L27.4844 3.10938Q29.7656 3.10938 29.7813 5.57813L29.7813 5.57813L29.7813 10.3906L28.5469 10.3906L28.5469 5.59375Q28.5313 4.90625 28.2188 4.57813Q27.9063 4.25 27.2344 4.25L27.2344 4.25Q26.6875 4.25 26.2656 4.54688Q25.8438 4.84375 25.6094 5.35938L25.6094 5.35938L25.6094 10.3906L24.375 10.3906L24.375 3.23438L25.3594 3.23438Z" transform="translate(71.4375 0)" id="N" fill="#FFFFFF" fill-rule="evenodd" stroke="none" />
    </g>
    <g id="strava-logo" transform="translate(103 0)">
      <path d="M34.4688 19.1875L26.7188 0L19 19.1875L26.7188 19.1875L34.4688 19.1875Z" id="Shape" fill="#FC4C02" fill-rule="evenodd" stroke="none" />
      <path d="M26.7188 19.1875L21.8594 29.5313L16.9688 19.1875L26.7188 19.1875Z" id="Shape" fill="#FC4C02" fill-opacity="0.5" fill-rule="evenodd" stroke="none" />
      <g id="STRAVA">
        <path d="M7.17188 40.4844L7.17188 40.4844Q7.17188 39.6719 6.70313 39.2656Q6.23438 38.8594 5.29688 38.7031L5.29688 38.7031L4.42188 38.5625Q2.17188 38.2344 2.17188 36.4688L2.17188 36.4688Q2.17188 35.4844 2.96875 34.8594Q3.76563 34.2344 5.04688 34.2344L5.04688 34.2344Q6.39063 34.2344 7.20313 34.8906Q8.01563 35.5469 8.04688 36.6719L8.04688 36.6719L6.73438 36.6719Q6.70313 36.0781 6.28125 35.7656Q5.85938 35.4531 5.04688 35.4531L5.04688 35.4531Q4.26563 35.4531 3.875 35.7344Q3.48438 36.0156 3.48438 36.5156L3.48438 36.5156Q3.48438 36.9844 3.90625 37.2656Q4.32813 37.5469 5.1875 37.7031L5.1875 37.7031L6.0625 37.8438Q7.23438 38.0469 7.84375 38.6563Q8.45313 39.2656 8.45313 40.3125L8.45313 40.3125Q8.45313 41.3594 7.65625 42.0156Q6.85938 42.6719 5.5625 42.6719L5.5625 42.6719Q4.15625 42.6719 3.32813 41.9844Q2.5 41.2969 2.48438 40.1094L2.48438 40.1094L3.79688 40.1094Q3.82813 40.7813 4.29688 41.1406Q4.76563 41.5 5.5625 41.5L5.5625 41.5Q6.40625 41.5 6.78906 41.2031Q7.17188 40.9063 7.17188 40.4844Z" transform="translate(0 5.328125)" id="S" fill="#FFFFFF" fill-rule="evenodd" stroke="none" />
        <path d="M13.1406 35.4844L13.1406 35.4844L11.3125 35.4844L11.3125 42.5625L10 42.5625L10 35.4844L8.1875 35.4844L8.1875 34.3438L13.1406 34.3438L13.1406 35.4844Z" transform="translate(8.46875 5.328125)" id="T" fill="#FFFFFF" fill-rule="evenodd" stroke="none" />
        <path d="M14.7813 42.5625L13.4688 42.5625L13.4688 34.3438L15.8906 34.3438Q17.1875 34.3438 17.9375 35.0156Q18.6875 35.6875 18.6875 36.8594L18.6875 36.8594Q18.6875 37.5625 18.3438 38.125Q18 38.6875 17.3594 38.9688L17.3594 38.9688L19.0156 42.4688L19.0156 42.5625L17.6094 42.5625L16.1094 39.3125L14.7813 39.3125L14.7813 42.5625ZM14.7813 35.4844L14.7813 38.1719L15.8906 38.1719Q16.6875 38.1719 17.125 37.7969Q17.5625 37.4219 17.5625 36.8125L17.5625 36.8125Q17.5625 36.1875 17.1563 35.8438Q16.75 35.5 15.9375 35.4844L15.9375 35.4844L14.7813 35.4844Z" transform="translate(21.640625 5.328125)" id="R" fill="#FFFFFF" fill-rule="evenodd" stroke="none" />
        <path d="M23.9531 42.5625L22.0469 34.3438L23.4063 34.3438L24.5938 40.3125Q24.6875 40.7188 24.75 41.1875L24.75 41.1875Q24.8125 40.7813 24.8906 40.4063L24.8906 40.4063L26.1406 34.3438L27.5781 34.3438L28.8125 40.3906Q28.8906 40.7813 28.9531 41.1875L28.9531 41.1875Q29.0156 40.7969 29.1094 40.3281L29.1094 40.3281L30.2813 34.3438L31.625 34.3438L29.7344 42.5625L28.2656 42.5625L26.9844 36.4063Q26.9219 36.1094 26.8594 35.6406L26.8594 35.6406Q26.8125 35.9531 26.75 36.25L26.75 36.25Q26.7188 36.3906 26.6875 36.5L26.6875 36.5L25.4219 42.5625L23.9531 42.5625Z" transform="translate(35.796875 5.328125)" id="W" fill="#FFFFFF" fill-rule="evenodd" stroke="none" />
        <path d="M35.9063 42.5625L33.0156 34.3438L34.4063 34.3438L36.1406 39.9531Q36.2656 40.3594 36.3438 40.8125L36.3438 40.8125Q36.4063 40.4688 36.5313 40.0469L36.5313 40.0469L38.3125 34.3438L39.6875 34.3438L36.7969 42.5625L35.9063 42.5625Z" transform="translate(57.453125 5.328125)" id="V" fill="#FFFFFF" fill-rule="evenodd" stroke="none" />
        <path d="M43.625 42.5625L42.2813 34.3438L43.6406 34.3438L44.4219 39.4844Q44.5 40.0156 44.5469 40.5781L44.5469 40.5781Q44.5938 40.2031 44.6875 39.7344L44.6875 39.7344L46 34.3438L47.4219 34.3438L48.7188 39.6875Q48.8281 40.1875 48.875 40.5781L48.875 40.5781Q48.9219 40.125 49.0156 39.5469L49.0156 39.5469L49.7813 34.3438L51.125 34.3438L49.7813 42.5625L48.3125 42.5625L46.9688 36.9688Q46.9063 36.6719 46.8594 36.25L46.8594 36.25Q46.8125 36.5469 46.75 36.8438L46.75 36.8438L45.4375 42.5625L43.625 42.5625Z" transform="translate(71.109375 5.328125)" id="W" fill="#FFFFFF" fill-rule="evenodd" stroke="none" />
      </g>
    </g>
  </g>
</svg>
